<svg width="30" height="30" viewBox="0 0 30 30" fill="none" xmlns="http://www.w3.org/2000/svg">
<path d="M16.575 25.925L15 27.5L13.125 25.625L11.25 27.5L9.375 25.625L7.5 27.5L5.625 25.625L3.75 27.5V2.5L5.625 4.375L7.5 2.5L9.375 4.375L11.25 2.5L13.125 4.375L15 2.5L16.875 4.375L18.75 2.5L20.625 4.375L22.5 2.5L24.375 4.375L26.25 2.5V16.6875C25.4625 16.4125 24.625 16.25 23.75 16.25V6.25H6.25V23.75H16.25C16.25 24.4625 16.375 25.275 16.575 25.925ZM7.5 18.75V21.25H16.6875C17.0125 20.3125 17.5 19.475 18.175 18.75H7.5ZM7.5 16.25H22.5V13.75H7.5V16.25ZM7.5 11.25H22.5V8.75H7.5V11.25ZM28.75 21.5375L27.3 19.775L22.8125 24.2625L20.825 22.275L19.375 23.75L22.8125 27.5" fill="#BFFC00"/>
</svg>
